<?xml version="1.0" standalone="no"?>
<!DOCTYPE svg PUBLIC "-//W3C//DTD SVG 20010904//EN"
 "http://www.w3.org/TR/2001/REC-SVG-20010904/DTD/svg10.dtd">
<svg version="1.0" xmlns="http://www.w3.org/2000/svg"
 width="536.000000pt" height="536.000000pt" viewBox="0 0 536.000000 536.000000"
 preserveAspectRatio="xMidYMid meet">
<metadata>
Created by potrace 1.14, written by Peter Selinger 2001-2017
</metadata>
<g transform="translate(0.000000,536.000000) scale(0.100000,-0.100000)"
fill="#000000" stroke="none">
<path d="M40 3424 l0 -1935 22 3 c17 2 24 12 29 38 7 45 45 129 69 155 10 11
28 43 40 70 12 28 30 59 40 70 11 11 26 38 35 59 9 21 32 61 51 88 19 28 34
56 34 63 0 8 11 27 25 43 14 17 36 54 49 84 13 29 35 66 49 82 14 16 29 41 32
55 3 14 18 44 33 66 40 59 87 142 121 210 16 33 38 68 49 78 11 10 28 39 37
65 10 26 28 58 40 72 13 14 32 47 44 75 12 27 30 59 41 70 10 11 28 43 40 70
12 28 30 59 40 70 10 11 28 43 40 70 12 28 30 59 40 70 10 11 28 43 40 70 12
28 30 59 40 70 10 11 28 43 40 70 12 28 30 59 40 70 11 11 26 38 35 60 10 22
25 49 35 60 11 11 29 43 41 70 12 28 34 66 49 85 15 19 33 50 39 69 6 19 23
50 39 70 15 20 37 56 49 81 13 25 43 79 68 120 24 41 59 103 75 137 17 34 38
67 47 74 8 7 26 38 40 68 13 31 32 65 43 76 10 11 28 42 39 68 11 26 32 62 45
80 13 18 31 49 39 69 9 21 30 56 48 78 l33 41 145 -3 146 -3 20 -40 c12 -22
33 -61 48 -86 33 -56 34 -79 3 -116 -14 -16 -32 -49 -42 -74 -9 -24 -27 -55
-40 -69 -12 -14 -32 -47 -44 -75 -12 -27 -30 -59 -40 -70 -10 -11 -28 -42 -40
-70 -12 -27 -30 -59 -40 -70 -10 -11 -28 -42 -40 -70 -12 -27 -30 -59 -40 -70
-10 -11 -28 -42 -40 -70 -12 -27 -30 -59 -40 -70 -11 -11 -26 -38 -35 -59 -9
-21 -32 -61 -51 -88 -19 -28 -34 -56 -34 -62 0 -7 -12 -28 -26 -47 -14 -19
-35 -54 -47 -79 -11 -25 -32 -61 -47 -80 -15 -19 -33 -51 -40 -70 -7 -19 -25
-51 -39 -70 -14 -19 -34 -53 -44 -75 -10 -22 -28 -53 -41 -70 -13 -16 -26 -40
-30 -52 -4 -12 -22 -44 -40 -70 -18 -27 -38 -64 -46 -83 -7 -19 -23 -46 -36
-60 -12 -14 -32 -47 -44 -75 -12 -27 -30 -59 -40 -70 -10 -11 -28 -42 -40 -70
-12 -27 -30 -59 -40 -70 -10 -11 -28 -42 -40 -70 -12 -27 -30 -59 -40 -70 -10
-11 -28 -42 -40 -70 -12 -27 -30 -59 -40 -70 -10 -11 -28 -42 -40 -70 -12 -27
-30 -59 -40 -70 -11 -11 -27 -38 -36 -60 -9 -22 -29 -58 -44 -80 -37 -53 -44
-79 -26 -95 21 -17 119 -24 211 -15 69 6 81 10 116 42 21 19 50 58 65 86 59
117 90 174 111 203 12 16 33 55 46 86 14 30 30 59 36 63 7 4 23 32 37 63 14
31 31 63 39 72 12 14 48 78 114 205 14 28 36 65 48 82 13 17 32 53 44 79 11
27 29 58 39 69 10 11 26 40 36 65 9 25 27 56 40 70 12 14 30 45 40 70 10 25
33 67 51 94 18 26 33 54 33 61 0 6 14 31 31 54 17 24 40 64 50 89 11 26 29 56
39 67 10 11 26 40 36 65 9 25 27 56 40 70 12 14 30 45 40 70 9 25 29 61 44 80
14 19 31 49 37 66 6 18 27 55 47 84 20 29 36 58 36 65 0 7 15 35 33 61 19 27
40 66 48 87 20 55 36 67 87 60 42 -6 45 -9 73 -66 16 -33 35 -68 43 -76 8 -9
23 -34 33 -56 10 -22 30 -56 45 -75 14 -19 33 -53 42 -75 10 -22 26 -49 36
-60 10 -11 28 -40 39 -65 11 -25 31 -60 45 -78 13 -18 30 -48 37 -65 7 -18 24
-48 39 -67 14 -19 34 -54 45 -78 10 -23 25 -48 33 -55 8 -6 27 -40 43 -73 15
-34 32 -65 39 -69 6 -4 24 -34 40 -68 17 -33 36 -67 44 -76 7 -9 25 -39 40
-68 14 -28 31 -55 37 -58 6 -4 24 -36 39 -70 15 -34 33 -66 40 -70 7 -4 25
-36 40 -70 15 -34 33 -66 39 -70 6 -3 23 -30 38 -58 14 -29 36 -65 48 -82 13
-16 30 -48 39 -70 10 -22 26 -49 36 -60 10 -11 30 -45 43 -76 14 -30 32 -61
41 -68 9 -8 25 -33 35 -57 11 -24 31 -58 44 -76 14 -18 32 -51 41 -73 10 -22
25 -49 36 -60 10 -11 29 -45 43 -75 13 -30 31 -61 40 -68 9 -8 28 -39 42 -69
13 -30 36 -68 50 -85 14 -16 25 -35 25 -42 0 -7 18 -39 39 -72 52 -79 56 -96
29 -121 -23 -21 -26 -21 -1080 -31 -581 -5 -1068 -7 -1083 -5 -15 3 -32 17
-40 32 -12 25 -11 31 11 68 13 23 34 72 45 110 12 37 27 75 35 84 8 9 21 36
30 61 29 88 -22 81 652 86 328 2 610 7 627 11 28 7 29 10 26 52 -3 51 -24 105
-51 134 -10 11 -28 41 -39 66 -11 25 -29 56 -39 70 -11 13 -31 47 -45 76 -15
28 -32 55 -38 58 -6 4 -24 36 -39 70 -15 34 -33 66 -40 70 -6 4 -24 34 -40 68
-17 33 -36 67 -44 76 -7 9 -25 39 -40 68 -14 28 -31 55 -37 58 -6 4 -24 36
-39 70 -15 34 -33 66 -40 70 -7 4 -25 36 -40 70 -15 34 -33 66 -39 70 -6 3
-23 29 -37 57 -14 27 -39 68 -55 91 -16 22 -29 45 -29 51 0 6 -9 25 -19 43
-19 30 -21 31 -58 20 -52 -15 -58 -20 -78 -75 -10 -26 -30 -63 -45 -82 -15
-19 -35 -55 -44 -80 -10 -25 -26 -54 -36 -65 -11 -11 -26 -38 -36 -60 -9 -22
-27 -54 -40 -72 -13 -18 -34 -54 -45 -80 -11 -26 -29 -57 -39 -68 -10 -11 -26
-40 -36 -65 -10 -25 -30 -61 -44 -80 -15 -19 -35 -55 -44 -80 -10 -25 -26 -54
-36 -65 -10 -11 -28 -42 -40 -70 -12 -27 -30 -59 -40 -70 -10 -11 -28 -42 -39
-68 -11 -26 -31 -62 -44 -80 -13 -18 -30 -48 -37 -67 -7 -19 -21 -44 -31 -55
-10 -11 -30 -47 -44 -80 -15 -33 -37 -71 -50 -85 -12 -14 -28 -42 -35 -63 -6
-21 -22 -50 -36 -66 -13 -16 -32 -49 -43 -75 -11 -25 -29 -58 -40 -73 -12 -16
-31 -48 -43 -73 -40 -78 -25 -76 -713 -88 -345 -6 -619 -7 -645 -2 -25 5 -53
9 -62 10 -17 0 -18 -42 -18 -740 l0 -740 2640 0 2640 0 0 2680 0 2680 -2640 0
-2640 0 0 -1936z m4184 930 c31 -36 56 -71 56 -78 0 -7 18 -40 40 -72 22 -33
40 -64 40 -71 0 -6 12 -26 28 -44 15 -17 41 -59 57 -93 30 -60 30 -61 76 -64
l46 -3 27 58 c15 31 38 70 51 85 13 15 27 38 31 50 3 13 22 44 40 69 18 25 38
57 43 71 13 36 97 144 117 152 8 3 87 6 174 6 156 0 159 0 189 -26 l31 -26 0
-651 c0 -359 -3 -669 -6 -689 -9 -55 -45 -68 -186 -68 -134 0 -179 15 -189 65
-4 17 -7 168 -8 338 l-1 307 -45 0 c-45 0 -45 0 -75 -59 -16 -33 -34 -62 -40
-66 -6 -4 -21 -27 -34 -53 -13 -26 -33 -55 -44 -65 -10 -10 -27 -37 -37 -60
-29 -65 -43 -77 -91 -77 -43 0 -44 1 -70 53 -15 28 -40 67 -55 85 -16 18 -29
39 -29 47 0 7 -12 28 -27 46 -16 18 -41 57 -58 88 -24 44 -36 57 -57 59 -15 2
-34 13 -43 24 -21 30 -24 15 -27 -135 -3 -114 -5 -130 -22 -143 -38 -27 -56
-17 -82 44 -14 31 -36 68 -48 82 -13 14 -31 45 -40 69 -10 25 -31 60 -47 78
-16 19 -29 40 -29 47 0 7 -18 40 -40 72 -22 33 -40 64 -40 70 0 6 -13 30 -29
55 -41 62 -48 117 -21 152 18 23 22 45 27 162 8 183 -1 175 224 175 l168 0 55
-66z m-2087 -3702 c24 -21 53 -62 69 -97 16 -33 30 -63 32 -67 2 -5 -60 -8
-137 -8 -157 0 -160 2 -116 61 14 19 35 54 46 79 40 83 46 85 106 32z"/>
</g>
</svg>
